<svg xmlns="http://www.w3.org/2000/svg" fill="none" viewBox="0 0 778 778"><circle cx="389" cy="389" r="354" fill="#0C0D0D"/><path fill="#A5E3E1" d="M389 70.829A318.173 318.173 0 0 0 164.019 613.98a318.175 318.175 0 0 0 346.74 68.971A318.176 318.176 0 0 0 707.171 389a318.181 318.181 0 0 0-93.19-224.981A318.176 318.176 0 0 0 389 70.829Zm0 576.37a258.203 258.203 0 0 1-238.545-159.39 258.201 258.201 0 0 1 188.173-352.047 258.193 258.193 0 0 1 265.057 109.79 258.203 258.203 0 0 1-32.11 326.023A258.203 258.203 0 0 1 389 647.199Z"/><path fill="#0C0D0D" d="M389 662.229a273.226 273.226 0 0 1-267.979-326.533 273.218 273.218 0 0 1 74.777-139.898 273.224 273.224 0 0 1 420.384 41.404A273.226 273.226 0 0 1 662.229 389 273.55 273.55 0 0 1 389 662.229Zm0-516.423a243.197 243.197 0 0 0-224.682 150.128 243.19 243.19 0 0 0 52.718 265.03 243.196 243.196 0 0 0 374.173-36.853A243.197 243.197 0 0 0 632.194 389 243.493 243.493 0 0 0 389 145.806Z"/><path fill="#0C0D0D" d="M389 722.176c-183.716 0-333.176-149.46-333.176-333.176 0-183.716 149.46-333.176 333.176-333.176 183.716 0 333.177 149.46 333.177 333.176 0 183.716-149.461 333.176-333.177 333.176Zm0-636.317A303.143 303.143 0 0 0 91.684 448.14 303.147 303.147 0 0 0 329.86 686.316 303.14 303.14 0 0 0 692.141 389 303.561 303.561 0 0 0 389 85.859Z"/><path stroke="#fff" stroke-width="24.294" d="m185.218 389.417 132.474-132.474 132.473 132.474-132.473 132.474z"/><path stroke="#fff" stroke-width="24.294" d="m328.763 389.417 132.474-132.474L593.71 389.417 461.237 521.891z"/></svg>