<svg id="Layer_1" data-name="Layer 1" xmlns="http://www.w3.org/2000/svg" viewBox="0 0 300 300"><defs><style>.cls-1{fill:#a5e3e1;}.cls-2{fill:#303351;}.cls-3{fill:none;stroke:#303351;stroke-miterlimit:10;stroke-width:11px;}</style></defs><title>icon-pdf-transform</title><path class="cls-1" d="M150,21.08A128.92,128.92,0,1,0,278.92,150,128.92,128.92,0,0,0,150,21.08Zm0,233.54A104.62,104.62,0,1,1,254.62,150,104.62,104.62,0,0,1,150,254.62Z"/><path class="cls-2" d="M150,260.71A110.71,110.71,0,1,1,260.71,150,110.84,110.84,0,0,1,150,260.71Zm0-209.25A98.54,98.54,0,1,0,248.54,150,98.66,98.66,0,0,0,150,51.46Z"/><path class="cls-2" d="M150,285C75.56,285,15,224.44,15,150S75.56,15,150,15,285,75.56,285,150,224.44,285,150,285Zm0-257.83A122.83,122.83,0,1,0,272.83,150,123,123,0,0,0,150,27.17Z"/><rect class="cls-3" x="89.78" y="113.23" width="72.15" height="72.15" transform="translate(-68.71 132.72) rotate(-45)"/><rect class="cls-3" x="138.07" y="114.62" width="72.15" height="72.15" transform="translate(-55.55 167.28) rotate(-45)"/></svg>