<svg id="Layer_1" data-name="Layer 1" xmlns="http://www.w3.org/2000/svg" viewBox="0 0 300 300"><defs><style>.cls-1{fill:#a5e3e1;}.cls-2{fill:#303351;}.cls-3{fill:none;stroke:#303351;stroke-miterlimit:10;stroke-width:11px;}</style></defs><title>icon-pdf-transform</title><path class="cls-1" d="M150,37.32A112.68,112.68,0,1,0,262.68,150,112.68,112.68,0,0,0,150,37.32Zm0,204.13A91.45,91.45,0,1,1,241.45,150,91.45,91.45,0,0,1,150,241.45Z"/><path class="cls-2" d="M150,246.77A96.77,96.77,0,1,1,246.77,150,96.88,96.88,0,0,1,150,246.77Zm0-182.9A86.13,86.13,0,1,0,236.13,150,86.23,86.23,0,0,0,150,63.87Z"/><path class="cls-2" d="M150,268A118,118,0,1,1,268,150,118.13,118.13,0,0,1,150,268Zm0-225.36A107.36,107.36,0,1,0,257.36,150,107.48,107.48,0,0,0,150,42.64Z"/><rect class="cls-3" x="97.36" y="117.86" width="63.07" height="63.07" transform="translate(-67.88 134.9) rotate(-45)"/><rect class="cls-3" x="139.57" y="119.08" width="63.07" height="63.07" transform="translate(-56.38 165.1) rotate(-45)"/></svg>