<svg xmlns="http://www.w3.org/2000/svg" fill="none" viewBox="0 0 652 652"><circle cx="326" cy="326" r="316" fill="#000" stroke="#fff" stroke-width="20"/><path fill="#A5E3E1" d="M326 50.97A275.027 275.027 0 0 0 56.255 379.657 275.027 275.027 0 0 0 431.25 580.094 275.034 275.034 0 0 0 601.029 326a275.02 275.02 0 0 0-80.554-194.475A275.03 275.03 0 0 0 326 50.971Zm0 498.219a223.19 223.19 0 1 1 0-446.379 223.19 223.19 0 0 1 0 446.379Z"/><path fill="#000" d="M326 562.181a236.18 236.18 0 1 1 90.383-454.384A236.184 236.184 0 0 1 562.181 326a236.453 236.453 0 0 1-69.257 166.924A236.453 236.453 0 0 1 326 562.181Zm0-446.4a210.218 210.218 0 1 0 174.79 327.01A210.212 210.212 0 0 0 536.219 326 210.475 210.475 0 0 0 326 115.781Z"/><path fill="#000" d="M326 614C167.195 614 38 484.805 38 326S167.195 38 326 38s288 129.195 288 288-129.195 288-288 288Zm0-550.037A262.037 262.037 0 1 0 588.037 326a262.397 262.397 0 0 0-76.855-185.182A262.396 262.396 0 0 0 326 63.963Z"/><path stroke="#fff" stroke-width="21" d="M149.849 326.36 264.36 211.849 378.871 326.36 264.36 440.871z"/><path stroke="#fff" stroke-width="21" d="m273.93 326.36 114.511-114.511L502.952 326.36 388.441 440.871z"/></svg>